<?xml version="1.0" encoding="UTF-8" standalone="no"?>
<svg
   width="128"
   height="128"
   viewBox="0 0 128 128"
   version="1.1"
   id="svg5"
   xmlns="http://www.w3.org/2000/svg"
   xmlns:svg="http://www.w3.org/2000/svg">
  <defs
     id="defs1" />
  <g
     id="layer1">
    <rect
       style="fill:#666666;fill-opacity:1;stroke:none;stroke-width:0.264583;stroke-miterlimit:4;stroke-dasharray:none;stroke-opacity:1"
       id="rect1"
       width="128"
       height="128"
       x="0"
       y="0"
       ry="16" />
  </g>
  <g
     id="layer2"
     style="fill:#ffffff;stroke:#ffffff;stroke-width:1px;stroke-linecap:butt;stroke-linejoin:miter;stroke-opacity:1"
     transform="matrix(1.4029724,0,0,1.4029724,-21.097327,-15.952748)">
    <g
       id="g1"
       transform="rotate(-16.736169,57.704924,56)">
      <path
         d="m 28,48 h -8 c -0.772057,5.363028 -0.801751,10.696361 0,16 h 8 c 0,4 0,12 4,16 h 8 c -2.794785,-5.401293 -4.433814,-10.982229 -4,-16 0,-8 0,-8 0,-16 h -8"
         id="path1" />
      <path
         d="m 40,64 c 20,0 40,8 56,20 V 28 C 80,40 60,48 40,48 Z"
         id="path2" />
    </g>
  </g>
</svg>
